Coordinates
nRows=247
nColumns=2
inDegrees=yes
endheader
time	ankle_angle_r	
2.96069	 18.878958	
2.99395	 18.870075	
3.02722	 18.870810	
3.06048	 18.889268	
3.09375	 18.923138	
3.12702	 18.958432	
3.16028	 18.983808	
3.19355	 18.996642	
3.22681	 18.996292	
3.26008	 18.986846	
3.29335	 18.980798	
3.32661	 18.988115	
3.35988	 19.005647	
3.39315	 19.023344	
3.42641	 19.037334	
3.45968	 19.050195	
3.49294	 19.060358	
3.52621	 19.060804	
3.55948	 19.048942	
3.59274	 19.029561	
3.62601	 19.009198	
3.65927	 18.991568	
3.69254	 18.973858	
3.72581	 18.948088	
3.75907	 18.912897	
3.79234	 18.880354	
3.8256	 18.867176	
3.85887	 18.877946	
3.89214	 18.895244	
3.9254	 18.897518	
3.95867	 18.882597	
3.99194	 18.860761	
4.0252	 18.840948	
4.05847	 18.829461	
4.09173	 18.826977	
4.125	 18.827914	
4.15827	 18.826516	
4.19153	 18.821118	
4.2248	 18.816346	
4.25806	 18.819613	
4.29133	 18.831814	
4.3246	 18.846019	
4.35786	 18.855791	
4.39113	 18.862003	
4.4244	 18.868736	
4.45766	 18.873325	
4.49093	 18.872428	
4.52419	 18.876649	
4.55746	 18.899850	
4.59073	 18.933816	
4.62399	 18.953042	
4.65726	 18.949622	
4.69052	 18.945121	
4.72379	 18.959354	
4.75706	 18.985328	
4.79032	 19.005415	
4.82359	 19.016884	
4.85685	 19.026446	
4.89012	 19.031228	
4.92339	 19.025284	
4.95665	 19.014704	
4.98992	 19.008420	
5.02319	 19.008016	
5.05645	 19.014965	
5.08972	 19.030107	
5.12298	 19.046152	
5.15625	 19.051988	
5.18952	 19.043193	
5.22278	 19.028396	
5.25605	 19.019683	
5.28931	 19.015591	
5.32258	 19.007074	
5.35585	 18.995422	
5.38911	 18.991131	
5.42238	 18.999852	
5.45565	 19.015624	
5.48891	 19.027164	
5.52218	 19.026189	
5.55544	 19.010722	
5.58871	 18.989378	
5.62198	 18.978333	
5.65524	 18.984141	
5.68851	 18.996058	
5.72177	 19.002182	
5.75504	 19.003199	
5.78831	 19.005527	
5.82157	 19.011179	
5.85484	 19.016233	
5.8881	 19.015827	
5.92137	 19.012296	
5.95464	 19.013556	
5.9879	 19.020428	
6.02117	 19.022780	
6.05444	 19.011737	
6.0877	 18.992569	
6.12097	 18.981886	
6.15423	 18.990802	
6.1875	 19.013065	
6.22077	 19.032549	
6.25403	 19.040042	
6.2873	 19.037128	
6.32056	 19.030431	
6.35383	 19.027175	
6.3871	 19.028815	
6.42036	 19.032000	
6.45363	 19.034358	
6.4869	 19.032191	
6.52016	 19.021242	
6.55343	 18.998509	
6.58669	 18.962414	
6.61996	 18.924580	
6.65323	 18.904192	
6.68649	 18.899484	
6.71976	 18.892960	
6.75302	 18.877695	
6.78629	 18.858072	
6.81956	 18.841653	
6.85282	 18.832546	
6.88609	 18.827171	
6.91935	 18.822834	
6.95262	 18.821136	
6.98589	 18.821539	
7.01915	 18.822882	
7.05242	 18.825107	
7.08569	 18.825570	
7.11895	 18.821979	
7.15222	 18.814746	
7.18548	 18.806192	
7.21875	 18.804484	
7.25202	 18.816264	
7.28528	 18.835246	
7.31855	 18.852232	
7.35181	 18.863544	
7.38508	 18.866327	
7.41835	 18.864500	
7.45161	 18.869031	
7.48488	 18.883916	
7.51815	 18.905463	
7.55141	 18.924355	
7.58468	 18.926297	
7.61794	 18.912256	
7.65121	 18.906861	
7.68448	 18.929972	
7.71774	 18.973676	
7.75101	 19.012763	
7.78427	 19.029357	
7.81754	 19.025929	
7.85081	 19.015032	
7.88407	 19.004594	
7.91734	 18.998852	
7.9506	 19.000237	
7.98387	 19.006203	
8.01714	 19.012875	
8.0504	 19.015661	
8.08367	 19.006252	
8.11694	 18.982484	
8.1502	 18.952636	
8.18347	 18.923740	
8.21673	 18.901680	
8.25	 18.894420	
8.28327	 18.898571	
8.31653	 18.900181	
8.3498	 18.896089	
8.38306	 18.892649	
8.41633	 18.886975	
8.4496	 18.872249	
8.48286	 18.854080	
8.51613	 18.843416	
8.5494	 18.840162	
8.58266	 18.836659	
8.61593	 18.832163	
8.64919	 18.832833	
8.68246	 18.838121	
8.71573	 18.839409	
8.74899	 18.833163	
8.78226	 18.823699	
8.81552	 18.817381	
8.84879	 18.820406	
8.88206	 18.833858	
8.91532	 18.851461	
8.94859	 18.869123	
8.98185	 18.890869	
9.01512	 18.918421	
9.04839	 18.944949	
9.08165	 18.966237	
9.11492	 18.984029	
9.14819	 18.996662	
9.18145	 19.001973	
9.21472	 19.005931	
9.24798	 19.014203	
9.28125	 19.019850	
9.31452	 19.012822	
9.34778	 18.997022	
9.38105	 18.986960	
9.41431	 18.991021	
9.44758	 19.003420	
9.48085	 19.012031	
9.51411	 19.011976	
9.54738	 19.003968	
9.58065	 18.983170	
9.61391	 18.949801	
9.64718	 18.917738	
9.68044	 18.894141	
9.71371	 18.876108	
9.74698	 18.866377	
9.78024	 18.864953	
9.81351	 18.860653	
9.84677	 18.849086	
9.88004	 18.841121	
9.91331	 18.843689	
9.94657	 18.848737	
9.97984	 18.845883	
10.0131	 18.835688	
10.0464	 18.827897	
10.0796	 18.828256	
10.1129	 18.832582	
10.1462	 18.838389	
10.1794	 18.851773	
10.2127	 18.874943	
10.246	 18.898419	
10.2792	 18.913433	
10.3125	 18.924526	
10.3458	 18.940691	
10.379	 18.958525	
10.4123	 18.967333	
10.4456	 18.968137	
10.4788	 18.973830	
10.5121	 18.989184	
10.5454	 19.005286	
10.5786	 19.017758	
10.6119	 19.031060	
10.6452	 19.044354	
10.6784	 19.050277	
10.7117	 19.045504	
10.745	 19.035831	
10.7782	 19.029793	
10.8115	 19.029977	
10.8448	 19.033935	
10.878	 19.038385	
10.9113	 19.041258	
10.9446	 19.041970	
10.9778	 19.037241	
11.0111	 19.022990	
11.0444	 19.002929	
11.0776	 18.983572	
11.1109	 18.964292	
11.1442	 18.942580	
